<?xml version="1.0" standalone="no"?>
<!DOCTYPE svg PUBLIC "-//W3C//DTD SVG 20010904//EN"
 "http://www.w3.org/TR/2001/REC-SVG-20010904/DTD/svg10.dtd">
<svg version="1.0" xmlns="http://www.w3.org/2000/svg"
 width="512.000000pt" height="512.000000pt" viewBox="0 0 512.000000 512.000000"
 preserveAspectRatio="xMidYMid meet">
<metadata>
Created by potrace 1.14, written by Peter Selinger 2001-2017
</metadata>
<g transform="translate(0.000000,512.000000) scale(0.100000,-0.100000)"
fill="#000000" stroke="none">
<path d="M0 2560 l0 -2560 2560 0 2560 0 0 2560 0 2560 -2560 0 -2560 0 0
-2560z m870 679 c132 -21 247 -101 291 -202 27 -63 36 -179 20 -258 -34 -163
-145 -302 -434 -544 l-95 -80 289 -3 290 -2 -3 -123 -3 -122 -450 -3 c-247 -1
-460 0 -473 3 -21 5 -22 10 -22 108 0 68 4 109 13 119 6 8 68 64 137 124 168
145 356 336 404 408 97 147 102 268 12 322 -23 14 -50 19 -111 19 -69 0 -86
-4 -127 -28 -26 -15 -62 -45 -79 -66 l-31 -39 -101 71 c-56 38 -106 73 -110
77 -11 10 57 89 114 132 110 82 290 116 469 87z m1205 -4 c95 -20 166 -58 226
-122 57 -60 89 -124 121 -239 19 -70 22 -105 22 -304 1 -255 -10 -325 -69
-449 -81 -168 -213 -242 -435 -242 -325 -1 -478 166 -510 558 -19 241 17 475
93 606 34 57 117 134 173 158 106 47 254 60 379 34z m2472 -13 c180 -57 260
-165 251 -337 -3 -65 -7 -79 -42 -129 -26 -39 -62 -72 -113 -106 l-74 -49 49
-25 c89 -45 148 -100 183 -171 28 -58 32 -74 31 -148 -1 -174 -77 -281 -249
-344 -57 -21 -91 -26 -203 -30 -266 -9 -418 54 -492 205 -31 62 -33 74 -33
167 0 82 4 109 22 147 27 60 97 134 160 172 l49 30 -60 40 c-105 70 -153 167
-143 283 8 86 40 154 98 208 90 84 206 117 389 111 77 -3 136 -11 177 -24z
m-1017 -437 l0 -435 80 0 80 0 0 -115 0 -115 -80 0 -80 0 0 -110 0 -111 -127
3 -128 3 -3 108 -3 107 -329 0 -330 0 0 126 0 125 321 425 320 424 140 0 139
0 0 -435z"/>
<path d="M1872 3009 c-52 -15 -107 -78 -131 -150 -28 -86 -44 -252 -36 -374
17 -264 86 -375 233 -375 103 0 166 52 202 167 39 124 46 366 15 516 -36 176
-141 256 -283 216z"/>
<path d="M4263 3031 c-86 -22 -119 -71 -114 -168 2 -34 63 -96 130 -132 l60
-32 53 27 c29 15 64 35 78 46 36 28 70 88 70 124 0 39 -35 92 -77 116 -36 22
-149 32 -200 19z"/>
<path d="M4264 2464 c-77 -46 -103 -71 -125 -119 -68 -147 44 -268 232 -252
127 11 190 68 190 171 0 60 -15 98 -58 138 -36 34 -142 98 -163 98 -9 0 -43
-16 -76 -36z"/>
<path d="M3073 2611 c-106 -137 -193 -252 -193 -255 0 -3 88 -6 195 -6 l195 0
0 255 c0 140 -1 255 -2 255 -2 0 -90 -112 -195 -249z"/>
</g>
</svg>
